<svg width="79" height="75" viewBox="0 0 79 75" fill="none" xmlns="http://www.w3.org/2000/svg">
<rect width="79" height="75" rx="10" fill="white"/>
<path d="M37.7084 51.8333H29.6459C26.9285 51.8333 24.6065 50.8927 22.6799 49.0114C20.7532 47.1302 19.7905 44.8309 19.7917 42.1135C19.7917 39.7844 20.4934 37.709 21.8969 35.8875C23.3004 34.066 25.1368 32.9014 27.4063 32.3937C28.1528 29.6465 29.6459 27.4219 31.8854 25.7198C34.125 24.0177 36.6632 23.1667 39.5 23.1667C42.9938 23.1667 45.9578 24.3838 48.3921 26.8181C50.8263 29.2524 52.0429 32.2158 52.0417 35.7083C54.1021 35.9472 55.812 36.8359 57.1712 38.3743C58.5305 39.9128 59.2095 41.7116 59.2084 43.7708C59.2084 46.0104 58.4242 47.9144 56.8559 49.4827C55.2876 51.051 53.3842 51.8345 51.1459 51.8333H41.2917V39.0229L44.1584 41.8L46.6667 39.2917L39.5 32.125L32.3334 39.2917L34.8417 41.8L37.7084 39.0229V51.8333Z" fill="url(#paint0_linear_2_18)"/>
<defs>
<linearGradient id="paint0_linear_2_18" x1="8" y1="26.5" x2="72.5" y2="57" gradientUnits="userSpaceOnUse">
<stop stop-color="#CE4062"/>
<stop offset="1" stop-color="#433EB6"/>
</linearGradient>
</defs>
</svg>
